<svg xmlns="http://www.w3.org/2000/svg" viewBox="0 0 512 512" role="img" aria-label="Legjislacioni Shqiptar">
  <rect width="512" height="512" rx="104" fill="#201b16"/>
  <g stroke="#b8923a" stroke-width="11" fill="none" stroke-linecap="round" stroke-linejoin="round">
    <circle cx="256" cy="118" r="15" fill="#b8923a" stroke="none"/>
    <line x1="256" y1="133" x2="256" y2="374"/>
    <line x1="142" y1="158" x2="370" y2="158"/>
    <line x1="142" y1="158" x2="142" y2="178"/>
    <line x1="370" y1="158" x2="370" y2="178"/>
    <line x1="142" y1="178" x2="100" y2="240"/>
    <line x1="142" y1="178" x2="184" y2="240"/>
    <line x1="370" y1="178" x2="328" y2="240"/>
    <line x1="370" y1="178" x2="412" y2="240"/>
    <path d="M92 240 a50 32 0 0 0 100 0 Z" fill="#201b16"/>
    <path d="M320 240 a50 32 0 0 0 100 0 Z" fill="#201b16"/>
    <line x1="208" y1="374" x2="304" y2="374"/>
    <line x1="224" y1="374" x2="200" y2="396"/>
    <line x1="288" y1="374" x2="312" y2="396"/>
    <line x1="190" y1="396" x2="322" y2="396"/>
  </g>
</svg>
